<svg xmlns="http://www.w3.org/2000/svg" aria-hidden="true">
  <defs>
    <symbol id="custom-icon" viewBox="0 0 40 40">
      <path 
        fill="#9BE1A0" 
        d="M21.7939 8.35545C22.2159 8.30312 22.7784 8.3248 23.322 8.63286C24.1612 9.10837 24.9639 9.93416 24.9643 11.1685C24.9646 12.2229 24.3544 13.0717 23.829 13.6382C22.7325 14.8204 20.8389 15.9962 18.808 17.0639C17.5016 17.7507 16.0558 18.4343 14.5771 19.0869C13.6141 20.3753 12.7167 21.7252 11.9668 23.057C10.8029 25.1241 10.0666 28.6881 9.90005 30.1843C9.79822 31.0991 8.97406 31.7582 8.05924 31.6563C7.14441 31.5545 6.48535 30.7303 6.58718 29.8155C6.82605 27.6695 7.80898 23.6473 9.06226 21.4215C9.08089 21.3884 9.09959 21.3554 9.11837 21.3223C7.81042 21.8214 6.58995 22.263 5.54469 22.6242C4.67469 22.9248 3.72571 22.4632 3.4251 21.5932C3.12448 20.7232 3.58606 19.7743 4.45606 19.4737C6.64611 18.7169 9.5892 17.6099 12.4515 16.3773C12.8311 15.889 13.2166 15.4128 13.6037 14.9524C15.2505 12.9938 16.9702 11.2703 18.4568 10.0949C19.1918 9.51375 19.9339 9.01513 20.6265 8.70311C20.9727 8.54711 21.3714 8.40785 21.7939 8.35545ZM18.4693 23.6158C17.7588 24.1028 17.0614 24.5876 16.4984 24.9828C15.745 25.5116 14.7055 25.3295 14.1767 24.5761C13.6479 23.8226 13.83 22.7832 14.5834 22.2544C15.6698 21.4919 17.2656 20.3889 18.5145 19.5644C19.1286 19.159 19.698 18.7947 20.0852 18.5751C20.1842 18.5189 20.2909 18.461 20.395 18.4108L20.3993 18.4087C20.4647 18.3771 20.6709 18.2775 20.9187 18.2277C20.9954 18.2122 21.1249 18.1911 21.2854 18.193C21.4317 18.1947 21.7236 18.2161 22.0437 18.3817C22.417 18.5748 22.7346 18.9191 22.8761 19.3767C22.9987 19.7734 22.9437 20.1092 22.9018 20.2793C22.8453 20.5084 22.7495 20.6862 22.6862 20.7879C23.0788 20.6398 23.4603 20.4875 23.8064 20.3338C24.1296 20.1903 24.3938 20.0577 24.5926 19.94C24.7772 19.8307 24.8427 19.7717 24.8427 19.7717C24.8427 19.7717 24.8407 19.7741 24.8368 19.7786C25.3382 19.2154 26.0479 18.8686 26.8552 18.9258C27.5733 18.9766 28.1347 19.3314 28.5036 19.6519C28.7934 19.9038 29.0508 20.2083 29.2685 20.5407C29.7612 20.407 30.3434 20.2508 30.9408 20.0943C31.7289 19.888 32.5546 19.6785 33.2403 19.5195C33.582 19.4403 33.9023 19.3705 34.1723 19.3196C34.3949 19.2776 34.7212 19.2203 35.0004 19.2203C35.9208 19.2203 36.667 19.9665 36.667 20.887C36.667 21.7975 35.9369 22.5375 35.0303 22.5534C35.0343 22.5534 35.0364 22.5536 35.0364 22.5536C35.0364 22.5536 34.9667 22.5619 34.79 22.5952C34.5845 22.634 34.3143 22.6923 33.993 22.7667C33.3527 22.9152 32.5623 23.1155 31.7851 23.319C31.0103 23.5218 30.2593 23.725 29.7012 23.8777C29.4224 23.954 29.1923 24.0176 29.0321 24.062L28.8471 24.1134L28.7839 24.131C28.3432 24.2544 27.8703 24.1914 27.4777 23.9563C27.085 23.7213 26.8063 23.3352 26.7069 22.8885C26.6881 22.8042 26.6556 22.7068 26.6105 22.6063C26.5009 22.6806 26.393 22.7478 26.2911 22.8081C25.9404 23.0159 25.5486 23.2073 25.1593 23.3802C24.3818 23.7255 23.5023 24.0453 22.7604 24.3073C22.5764 24.3722 22.4048 24.4324 22.2458 24.488C22.1257 24.6284 21.9818 24.7609 21.8102 24.8776C21.3445 25.1943 20.8359 25.2853 20.4058 25.2853C20.2876 25.2853 20.0422 25.2829 19.7871 25.2194C19.6901 25.1952 19.336 25.1056 19.0105 24.8036C18.8208 24.6276 18.6142 24.3535 18.5191 23.9736C18.4882 23.85 18.4728 23.7301 18.4693 23.6158ZM22.643 20.7533C22.6443 20.7379 22.646 20.7315 22.646 20.7315C22.646 20.7315 22.6473 20.7356 22.6486 20.7414C22.6467 20.7395 22.645 20.7364 22.643 20.7533ZM34.7815 22.5767C34.779 22.577 34.777 22.5772 34.7764 22.5772C34.7774 22.5772 34.7795 22.5769 34.7815 22.5767ZM34.76 22.5774C34.7581 22.5777 34.7565 22.5779 34.7565 22.5779C34.7565 22.5779 34.7585 22.5777 34.76 22.5774Z"/>
    </symbol>
  </defs>
</svg>
